<?xml version="1.0" encoding="UTF-8" standalone="no"?>
<svg
   xmlns:dc="http://purl.org/dc/elements/1.1/"
   xmlns:cc="http://creativecommons.org/ns#"
   xmlns:rdf="http://www.w3.org/1999/02/22-rdf-syntax-ns#"
   xmlns:svg="http://www.w3.org/2000/svg"
   xmlns="http://www.w3.org/2000/svg"
   id="svg2"
   viewBox="0 0 18344.444 2822.2223"
   style="clip-rule:evenodd;fill-rule:evenodd;image-rendering:optimizeQuality;shape-rendering:geometricPrecision;text-rendering:geometricPrecision"
   version="1.1"
   height="100"
   width="650"
   xml:space="preserve"><metadata
     id="metadata35"><rdf:RDF><cc:Work
         rdf:about=""><dc:format>image/svg+xml</dc:format><dc:type
           rdf:resource="http://purl.org/dc/dcmitype/StillImage" /><dc:title></dc:title></cc:Work></rdf:RDF></metadata><defs
     id="defs4"><style
       id="style6"
       type="text/css"><![CDATA[
    .fil0 {fill:#8E5835;fill-rule:nonzero}
   ]]></style></defs><g
     transform="translate(-1158.7781,-9676.3888)"
     id="Camada_x0020_1"><metadata
       id="CorelCorpID_0Corel-Layer" /><g
       id="_2999757043888"><g
         id="g11"><path
           style="fill:#8e5835;fill-rule:nonzero"
           id="path13"
           d="m 12607,10506 c 0,-4 0,-3 -2,0 2,-1 2,-1 2,0 z"
           class="fil0" /><path
           style="fill:#8e5835;fill-rule:nonzero"
           id="path15"
           d="m 12138,10616 c 98,-22 168,61 169,61 -5,6 -31,25 -36,33 -66,78 -68,116 -84,180 -6,20 -7,50 -4,65 -20,3 -36,6 -60,14 -49,21 -68,41 -77,40 -19,-3 -41,-33 -53,-57 -67,-200 60,-290 92,-311 22,-13 31,-21 53,-25 z m 204,435 0,0 c -68,30 -153,127 -185,190 -2,-2 -22,-10 -42,-22 -31,-23 -56,-68 -66,-123 -6,-30 -2,-56 7,-64 65,-50 115,-62 133,-65 14,35 37,60 90,77 19,7 54,7 63,7 z m 12,4 0,0 c 7,27 24,53 36,67 15,20 27,30 37,39 -42,18 -79,61 -97,101 -20,53 -39,108 -23,157 -32,-14 -84,-40 -119,-104 -13,-28 -11,-66 12,-102 52,-95 129,-151 154,-158 z m 217,185 0,0 c -15,1 -39,18 -63,47 -61,76 -74,181 -41,235 -47,-8 -93,-36 -139,-82 -8,-21 -7,-48 -5,-80 6,-111 87,-171 121,-190 33,18 73,29 85,32 3,4 24,27 42,38 z m 109,43 0,0 c -38,45 -65,83 -78,156 -2,58 -3,101 20,142 -32,1 -205,-27 -135,-201 19,-46 65,-131 95,-135 11,14 87,39 98,38 z m -204,-598 0,0 c 63,34 64,65 64,97 -38,19 -81,54 -112,96 -32,45 -51,65 -66,113 -9,25 -11,29 -11,44 -7,2 -31,8 -67,-4 -32,-8 -50,-23 -74,-49 -21,-21 -21,-46 -21,-48 -2,-43 26,-83 52,-138 25,-45 62,-92 101,-112 54,-23 107,-13 134,1 z m 129,-179 0,0 c 2,-3 2,-4 2,0 0,-1 0,-1 -2,0 z m -10,4 0,0 c -5,4 -42,14 -76,44 -54,40 -89,82 -98,91 -33,-2 -75,8 -98,21 -5,-5 -24,-66 -131,-87 -2,0 -5,0 -7,0 21,-41 42,-93 164,-122 126,-29 250,22 246,53 z m 6,285 0,0 c 91,5 133,43 148,68 14,26 19,55 17,65 -116,23 -207,140 -232,193 -12,24 -13,47 -8,67 -28,-8 -60,-14 -99,-44 -30,-33 -67,-64 -56,-126 26,-88 160,-223 230,-223 z m 283,584 0,0 c -20,18 -57,36 -77,64 -39,60 -31,106 -21,144 6,30 32,48 45,61 -12,-1 -40,-1 -51,-1 -39,-5 -73,-8 -115,-41 -17,-11 -20,-27 -29,-41 -39,-111 23,-264 68,-283 51,8 56,-2 79,-4 2,3 5,34 29,65 16,20 51,33 72,36 z m -283,-847 0,0 c 28,-10 157,-18 201,60 -53,9 -96,54 -119,77 -54,64 -53,86 -54,101 -10,-2 -51,3 -59,2 3,-13 -13,-57 -40,-81 -23,-25 -59,-36 -90,-41 14,-16 37,-47 66,-67 67,-44 95,-53 95,-51 z m 308,442 0,0 c 37,15 63,48 68,58 -65,6 -126,50 -168,94 -43,54 -32,98 -29,132 -16,3 -32,14 -110,5 -38,-5 -86,-15 -125,-60 -26,-52 45,-152 124,-208 125,-76 168,-48 240,-21 z m 164,416 0,0 c -4,4 -46,56 -58,72 -63,100 -59,134 -65,180 -23,7 -65,20 -105,2 -52,-40 -68,-149 0,-212 15,-17 42,-35 66,-48 12,-1 34,-4 62,-21 17,-11 30,-23 33,-26 3,13 32,43 67,53 z m -211,-767 0,0 c 33,12 125,52 145,96 -9,-1 -27,3 -46,5 -86,20 -141,65 -175,90 -14,9 -23,18 -30,27 -14,-16 -40,-41 -84,-59 -16,-6 -20,-8 -26,-10 -6,-33 71,-126 151,-154 22,-4 47,0 65,5 z m 95,428 0,0 c 94,-22 177,53 174,71 -4,3 -8,7 -12,11 -69,50 -121,158 -115,188 -22,15 -40,28 -63,41 -32,11 -62,17 -107,-16 -35,-34 -82,-137 6,-216 26,-26 76,-64 117,-79 z m 220,-185 0,0 c -31,1 -92,24 -128,44 -69,40 -69,111 -69,111 -6,-23 -48,-83 -171,-98 -6,0 -20,3 -26,3 1,-1 -3,-48 -16,-74 15,-17 66,-48 118,-76 66,-28 81,-34 129,-27 81,14 140,63 163,117 z m 104,586 0,0 c -19,10 -46,33 -57,53 -34,49 -46,71 -41,130 4,22 16,31 24,38 -53,10 -81,10 -158,0 -41,-4 -84,-28 -88,-37 7,-32 16,-85 57,-147 21,-28 46,-76 73,-93 34,1 103,-27 121,-38 9,21 31,74 69,94 z m -84,-562 0,0 c 113,24 96,172 97,174 -20,-4 -71,-13 -153,53 1,-10 -40,-83 -154,-85 2,-15 18,-55 45,-83 34,-31 107,-53 165,-59 z m 229,532 0,0 c -15,10 -29,20 -59,23 -51,4 -89,18 -133,-66 -16,-22 -17,-51 22,-101 42,-43 74,-65 97,-63 65,46 84,129 73,207 z m -130,-334 0,0 c 56,27 55,68 56,112 -50,-3 -133,86 -143,141 -15,27 -98,44 -132,46 -38,-9 -62,-45 -60,-72 -7,-28 55,-115 98,-157 36,-32 74,-58 107,-67 32,-10 54,-10 74,-3 z m 138,351 0,0 c 20,49 67,169 29,226 -44,24 -162,33 -240,11 -22,-23 -43,-75 -14,-121 32,-54 70,-100 100,-97 77,10 117,-18 125,-19 z m 64,111 0,0 c -21,-65 -35,-98 -50,-118 4,-26 24,-49 -1,-124 -27,-82 -67,-99 -67,-99 -2,-3 9,-24 -8,-77 -12,-37 -45,-54 -45,-54 -1,-15 12,-67 -9,-111 -46,-94 -107,-94 -114,-98 7,-38 -63,-131 -171,-150 -13,-77 -157,-127 -197,-134 -42,-48 -59,-67 -113,-79 -39,-9 -87,-7 -100,-4 11,-53 -206,-145 -406,-20 -58,44 -56,78 -68,95 -85,14 -164,98 -194,182 -5,13 -11,32 -13,48 -5,26 -4,66 1,104 20,89 79,121 79,121 3,7 -10,50 3,95 7,27 18,60 54,101 23,26 43,33 69,40 1,6 1,23 15,56 24,61 101,120 151,133 52,79 120,89 178,100 0,0 35,50 145,53 17,12 19,45 144,57 20,3 60,0 69,1 43,19 87,4 104,0 21,17 83,37 153,42 51,3 100,-9 135,-11 100,28 212,-3 232,-11 44,-13 33,-107 24,-138 z"
           class="fil0" /><path
           style="fill:#8e5835;fill-rule:nonzero"
           id="path17"
           d="m 13201,11870 c 116,-8 242,-13 327,2 -28,1 -40,11 -88,10 -138,-2 -309,65 -492,39 -372,-6 -735,-240 -851,-361 -130,-136 -186,-249 -224,-360 97,196 212,329 359,433 306,186 684,255 969,237 z m 471,-272 0,0 c -30,-150 -45,-360 -136,-562 -184,-411 -652,-667 -861,-692 -111,-22 -210,-41 -279,-88 -74,-40 -175,-22 -222,5 -91,49 -87,136 -83,171 -114,-80 -120,-141 -137,-179 4,-2 8,-5 11,-8 1,2 -6,-22 -34,-21 -33,6 -38,31 -49,26 -15,3 -33,1 -47,0 -10,7 -23,12 -26,23 -1,-5 -1,-9 -1,-10 -2,12 3,52 36,66 5,2 14,3 19,12 19,47 69,123 99,147 -36,-3 -61,-8 -82,-7 -86,-10 -219,75 -211,244 2,50 29,120 53,176 46,113 75,129 100,259 1,6 1,12 3,17 14,48 42,124 104,240 100,189 331,361 593,457 263,94 612,85 772,43 42,-12 116,-15 162,-20 132,-9 190,-27 188,-27 39,-10 52,-36 61,-48 4,-5 46,-26 -33,-224 z m -56,-162 0,0 c 10,123 36,235 66,295 25,51 22,75 19,87 -5,10 -24,22 -66,36 -57,15 -118,-11 -202,-19 -167,-2 -414,33 -656,-36 -238,-64 -500,-151 -659,-319 -162,-166 -263,-340 -278,-457 -25,-130 -95,-172 -119,-292 -5,-80 44,-141 86,-176 84,-51 139,-33 174,-33 21,4 28,3 45,5 45,5 4,-22 -2,-24 -38,-28 -162,-164 -169,-197 -6,0 -10,9 2,17 -4,-1 -8,-4 -11,-4 -20,-8 -29,-24 -34,-37 9,-36 103,12 117,-18 3,-4 12,-6 21,-10 0,1 0,1 0,1 1,20 -1,49 18,98 53,40 88,94 107,114 75,63 74,56 70,42 1,-1 -16,-16 -28,-52 0,-1 -15,-41 21,-97 36,-48 141,-113 244,-49 232,103 574,117 815,360 270,202 383,523 419,765 z"
           class="fil0" /></g><g
         id="g19"><path
           style="fill:#8e5835;fill-rule:nonzero"
           id="path21"
           d="m 1722,11128 c -9,-5 -14,-12 -14,-19 0,-3 4,-19 11,-46 2,-17 10,-47 23,-92 l 39,-3 c 0,-7 -4,-19 -13,-36 -2,-4 -3,-8 -3,-14 0,-7 8,-32 23,-75 5,-25 13,-48 23,-69 7,-13 18,-30 30,-51 9,1 14,2 17,3 9,3 14,5 16,5 4,0 10,-4 18,-11 8,-1 13,-3 16,-5 2,-3 4,-8 6,-15 l -22,-3 -10,-33 0,0 c 0,-6 10,-18 28,-37 4,-4 9,-11 15,-18 8,-14 13,-23 16,-25 11,-11 18,-22 22,-34 l 7,-6 c 11,-17 20,-27 27,-32 3,-3 16,-12 37,-26 l 3,3 26,-13 1,-22 119,-95 c 5,-4 14,-10 28,-17 l 25,-17 23,-7 c 24,-17 38,-25 41,-25 5,0 14,3 26,9 l 13,-34 38,7 3,-18 c 20,-6 34,-10 40,-13 23,-8 45,-14 67,-16 l 28,-8 c 21,-5 33,-8 36,-9 5,-2 12,-8 22,-16 8,0 16,0 22,0 7,0 23,-4 46,-12 9,-3 20,-5 31,-5 9,0 18,1 26,4 7,2 12,2 13,2 l 124,-5 c 23,1 44,13 64,34 14,15 22,22 25,22 12,0 22,-13 32,-39 19,13 36,19 50,19 4,0 8,0 13,-1 16,-3 25,-5 25,-5 l 29,10 c 82,20 134,36 158,46 l 0,28 -1,0 c -10,10 -16,16 -19,20 -22,24 -37,36 -44,36 -7,0 -17,-4 -31,-12 -35,-14 -76,-29 -122,-46 l -12,-30 c -12,2 -20,4 -24,5 -9,4 -15,5 -17,5 -3,0 -23,-6 -60,-19 -12,-4 -19,-9 -22,-13 -3,-4 -6,-8 -8,-13 -20,9 -33,12 -39,12 l -53,1 -74,0 -23,-2 c -27,4 -49,9 -64,15 l -56,7 c -24,6 -43,9 -56,12 -8,1 -20,6 -36,16 l -46,21 -33,24 c -68,27 -113,57 -136,89 -16,4 -33,13 -55,26 0,7 -1,15 -3,21 -13,7 -29,20 -49,40 l -22,21 c -18,25 -30,40 -36,42 -5,4 -11,6 -15,6 -3,0 -7,0 -12,-1 4,7 6,11 6,13 0,2 -15,28 -45,77 -23,25 -37,40 -40,46 -2,3 -9,20 -22,49 l -19,46 -8,27 c -17,30 -27,53 -32,68 -2,10 -6,28 -12,55 -8,37 -14,57 -15,61 -2,8 -12,14 -31,18 2,16 10,29 22,40 -6,16 -9,26 -9,31 0,14 3,31 8,51 0,2 1,3 1,4 0,5 -3,9 -9,12 l -73,28 c -5,2 -8,5 -8,10 0,3 2,6 5,10 9,14 15,25 18,32 5,13 8,19 9,20 13,11 27,22 42,34 l 16,42 c 4,10 7,21 8,34 l -5,0 5,31 13,4 c 7,11 10,21 10,28 l 3,0 c 2,13 4,21 4,24 3,20 6,31 9,35 l 16,34 c 18,44 27,71 27,79 0,6 -6,9 -19,9 l 10,23 c 12,0 22,1 29,3 6,3 12,6 17,9 12,14 24,29 35,44 l 28,24 22,27 c 24,14 41,24 51,31 0,15 5,26 15,32 11,9 26,16 44,23 l 42,24 31,15 29,15 31,12 21,15 c 6,3 12,8 19,16 8,-9 16,-13 25,-13 1,0 37,9 107,28 77,0 117,0 121,0 4,0 9,2 14,6 10,5 20,8 27,10 8,-5 14,-10 16,-12 5,-5 8,-7 11,-7 l 11,1 6,1 75,-11 c 12,0 39,-7 83,-19 23,7 37,10 41,10 9,0 25,-7 46,-21 l 44,-11 c 26,-9 43,-15 52,-20 l 21,4 c 9,1 35,-6 79,-20 51,-18 78,-27 80,-29 2,-1 7,-7 15,-17 l 35,-18 c 19,-11 37,-17 53,-17 4,0 12,2 23,5 0,-16 3,-26 8,-29 3,-3 13,-9 31,-16 20,-12 31,-18 33,-18 5,0 11,3 20,8 -2,33 -9,58 -19,76 -6,10 -10,22 -13,37 -2,5 -5,10 -11,13 -5,3 -31,9 -77,17 -22,10 -37,15 -44,16 -4,2 -21,6 -50,13 l -40,8 -44,12 -39,6 c -38,12 -60,18 -66,18 -7,0 -17,0 -29,-1 -8,0 -21,0 -38,-1 l 0,6 c 0,12 -7,18 -22,18 -2,0 -5,-1 -7,-1 -12,-1 -18,-2 -19,-2 0,0 -4,1 -10,2 l -114,27 c -24,5 -51,8 -83,9 l -70,4 c 0,0 -1,0 -4,0 -5,9 -13,14 -23,14 -28,2 -52,2 -73,2 -13,0 -33,-5 -62,-16 -6,-2 -14,-3 -23,-3 -8,0 -16,5 -25,16 l -45,-1 c -11,-18 -22,-26 -32,-26 l -2,0 c -13,0 -25,1 -35,1 -10,2 -15,2 -16,2 -24,0 -53,-9 -88,-28 -27,-15 -56,-29 -89,-42 -52,-32 -86,-52 -102,-60 l -7,-16 20,0 c 0,-6 0,-10 0,-13 0,-21 -7,-32 -23,-34 -9,11 -17,16 -23,16 -3,0 -14,-7 -32,-23 l -63,-43 -20,-27 -9,-10 -33,-48 c -48,-65 -81,-138 -97,-219 l 18,-12 0,-17 -20,-14 c 0,-14 -3,-27 -9,-39 l -6,-20 c -7,-10 -10,-17 -11,-20 0,-3 -1,-14 -1,-35 l -4,-41 6,-19 c -7,-17 -10,-29 -10,-35 0,-14 5,-27 14,-40 1,-2 4,-13 7,-35 z m 1883,-75 c 8,4 16,6 23,6 6,0 9,-5 9,-15 0,-9 -9,-20 -26,-35 1,-14 2,-23 3,-26 l 18,-44 c 19,-69 46,-130 80,-183 23,-46 37,-74 44,-84 28,-42 50,-72 66,-91 l 9,5 14,-15 c 0,-5 0,-8 0,-10 0,-12 7,-24 20,-39 11,-12 32,-30 64,-54 8,-17 14,-26 15,-27 3,-2 6,-3 10,-3 l 0,0 23,8 15,-27 -3,-10 c 18,-13 36,-20 54,-22 3,-18 8,-30 14,-36 4,-5 24,-14 58,-29 18,-8 30,-15 35,-21 10,-9 20,-14 29,-14 10,-11 16,-17 18,-19 l 46,-21 36,-18 28,-8 c 23,-14 46,-24 69,-29 22,-5 53,-8 93,-10 l 46,-5 38,-5 c 19,-3 30,-5 33,-5 7,0 17,0 30,1 7,1 12,1 18,1 35,1 57,3 65,5 31,8 46,12 47,12 l 85,-8 c 0,0 2,2 7,6 10,12 17,20 22,24 4,3 19,5 46,6 9,0 24,6 46,16 l 22,4 17,6 14,5 c 6,2 11,11 16,28 7,-4 13,-7 17,-12 23,7 38,13 46,18 7,5 15,17 21,37 10,-8 18,-12 25,-12 3,0 30,19 81,56 17,13 28,22 32,28 3,5 6,10 9,15 4,5 9,13 16,23 l -17,27 7,0 0,29 c 10,-7 17,-11 21,-11 9,0 20,7 34,23 l 17,0 c 7,15 12,25 15,29 11,16 18,31 22,44 15,19 24,34 27,43 -10,10 -15,19 -15,29 0,1 0,4 0,6 23,19 38,36 46,50 3,8 5,32 5,74 l 14,50 1,30 c 5,27 7,43 7,49 0,7 -1,12 -4,15 0,0 -7,7 -20,19 -3,3 -5,15 -4,36 0,12 3,22 9,29 0,1 7,7 20,17 0,0 2,5 8,16 4,9 6,14 6,16 0,2 -1,8 -4,18 -2,6 -3,13 -3,21 0,3 0,7 0,12 2,29 2,48 2,59 0,8 -5,31 -17,69 l -4,17 -11,27 c -5,30 -10,48 -14,55 -4,6 -10,14 -19,23 l 6,18 c -13,7 -19,14 -20,19 l 0,11 c 1,7 -8,24 -27,51 -38,52 -73,95 -106,127 -30,38 -46,60 -51,65 -3,3 -15,12 -36,27 -5,2 -18,15 -40,39 -12,12 -24,21 -33,27 l -148,93 -27,11 -238,112 -30,7 -189,51 -7,2 -151,17 -42,-12 -32,-4 -30,-8 c -18,-1 -30,-2 -34,-4 -3,-2 -7,-6 -10,-14 l 3,-3 -13,-17 c -11,1 -24,3 -38,8 -2,0 -3,1 -3,1 -8,0 -14,-7 -17,-20 -1,-1 -7,-22 -17,-63 0,-2 -2,-9 -7,-22 -2,-4 -3,-6 -3,-6 -4,1 -10,31 -17,93 -15,-12 -40,-27 -75,-46 -35,-21 -60,-35 -74,-43 -1,-10 -2,-17 -5,-21 -2,-4 -8,-7 -18,-12 -1,-11 -3,-21 -6,-27 -5,-9 -9,-19 -14,-30 -12,0 -24,-3 -36,-11 -10,3 -16,5 -17,5 -6,0 -16,-9 -30,-29 -15,-19 -26,-32 -32,-37 0,-19 -2,-31 -4,-35 -1,-2 -8,-8 -20,-17 -1,-3 -3,-5 -6,-8 -1,-3 -8,-14 -18,-35 l -42,-67 c -13,-32 -19,-50 -19,-55 0,-5 4,-12 13,-21 l 14,0 -3,-27 c -5,-5 -13,-9 -22,-12 -15,-4 -22,-21 -24,-49 0,-23 -3,-41 -7,-56 -7,-21 -11,-64 -12,-128 l 0,-2 c 0,-2 1,-12 2,-32 1,-2 2,-21 2,-56 1,-21 7,-37 18,-49 z m 179,414 10,14 -7,2 24,6 c 9,22 18,38 29,49 7,6 10,14 11,23 8,12 14,19 18,24 -11,13 -16,23 -16,29 0,7 3,12 11,18 6,5 12,8 18,8 4,0 15,-3 33,-9 5,11 10,18 13,20 l 22,17 c 18,17 38,33 61,46 -3,12 -5,23 -5,33 0,8 3,14 10,19 9,8 20,12 32,12 3,0 7,-2 13,-4 11,10 24,21 40,31 2,13 4,20 7,21 2,2 6,4 13,7 10,2 22,8 37,17 18,10 29,16 33,17 12,5 25,12 39,22 12,1 36,6 70,14 34,6 54,10 61,13 16,6 26,9 30,9 0,0 4,-1 14,-3 4,-1 10,-1 15,-1 7,0 13,0 19,1 6,0 11,1 13,1 5,0 13,-3 23,-7 10,13 19,19 28,19 4,0 22,-5 52,-17 l 32,-4 c 28,-11 44,-18 50,-20 3,-1 23,-1 62,-1 l 27,-17 c 40,-20 66,-33 78,-41 12,8 21,12 28,12 8,0 16,-7 25,-21 -8,-8 -12,-16 -12,-22 0,-5 10,-12 31,-20 5,-1 17,-9 35,-22 7,-6 24,-16 52,-29 l 20,15 c 10,-18 23,-31 37,-38 l 3,-20 c 14,-9 43,-31 86,-67 l 31,-25 32,-43 29,-34 24,-45 25,-39 c 14,-35 25,-59 34,-71 -1,-8 -2,-15 -2,-21 0,-14 5,-21 15,-21 2,0 6,3 12,10 7,8 11,13 13,15 l 18,-21 c 3,0 6,0 8,0 11,-1 17,-4 17,-11 0,-7 -3,-15 -7,-26 -15,9 -27,14 -37,15 -7,-9 -10,-16 -10,-23 0,-2 3,-18 8,-49 l -1,-36 78,-18 -87,-34 42,-5 c 28,-54 42,-80 42,-80 0,-2 0,-3 -2,-4 -11,-11 -27,-17 -46,-17 -11,0 -25,1 -39,2 22,-4 33,-13 33,-28 -1,-16 -13,-30 -39,-42 2,-13 3,-22 3,-28 0,-6 -3,-27 -9,-60 -3,-22 -6,-41 -6,-56 -11,-11 -16,-17 -16,-20 l -17,-93 -15,-25 -15,-31 -21,-29 c -16,-41 -35,-71 -56,-88 1,-17 1,-27 1,-32 0,-8 -3,-17 -8,-26 l -34,9 c -9,-13 -23,-29 -43,-49 -19,-16 -29,-26 -31,-27 -4,-3 -27,-16 -70,-39 -18,-10 -33,-24 -44,-42 -7,5 -12,7 -15,7 -6,0 -14,-4 -24,-13 -6,0 -12,0 -16,0 -15,0 -38,-9 -71,-28 3,-11 4,-20 4,-28 0,-11 -11,-20 -33,-27 -6,6 -11,12 -16,20 -4,7 -9,12 -14,16 -14,-5 -31,-8 -53,-11 -33,-11 -52,-17 -56,-17 -1,0 -13,2 -35,6 l -9,-43 -3,44 c -15,-6 -24,-8 -26,-8 -3,0 -22,3 -57,10 -6,1 -13,2 -21,2 -9,0 -19,-1 -32,-2 -15,-2 -28,-3 -37,-3 -2,0 -15,2 -38,6 l -47,9 -54,25 -43,8 c -4,2 -11,9 -20,22 l -19,-2 -5,19 c -22,9 -39,18 -51,27 l 0,16 c -28,10 -56,27 -83,51 -37,34 -66,56 -88,65 -7,15 -13,25 -17,31 -3,3 -24,26 -63,68 -4,12 -10,24 -18,34 -8,8 -25,37 -54,87 -5,10 -18,42 -37,96 l -17,22 -9,47 -10,16 c -1,21 -2,34 -3,37 -1,3 -7,16 -18,42 -1,1 -1,3 -1,5 l 2,8 0,35 0,140 0,7 0,5 c 1,5 2,12 4,20 2,7 3,11 3,12 l -2,46 c 0,3 4,9 11,19 10,14 17,30 21,46 l 6,32 -1,26 c 0,3 11,19 31,48 1,2 2,5 2,10 0,6 -1,13 -3,21 z m -26,7 5,0 14,5 6,0 0,-1 -1,-1 -14,-5 -10,0 0,2 z"
           class="fil0" /><path
           style="fill:#8e5835;fill-rule:nonzero"
           id="path23"
           d="m 5700,11108 c -10,-5 -14,-12 -14,-19 0,-3 4,-19 11,-47 2,-16 10,-47 22,-91 l 40,-3 c -1,-8 -5,-20 -13,-36 -2,-4 -3,-9 -3,-14 0,-7 8,-32 23,-75 5,-25 12,-49 23,-70 7,-12 17,-29 30,-51 9,2 14,3 16,4 10,3 15,4 16,4 5,0 11,-3 19,-10 8,-1 13,-3 15,-5 3,-3 5,-8 7,-15 l -22,-3 -10,-33 0,0 c 0,-6 9,-19 28,-37 4,-5 9,-11 14,-19 9,-13 14,-22 17,-25 10,-11 18,-22 22,-33 l 6,-7 c 11,-16 20,-26 27,-31 4,-4 16,-12 38,-27 l 3,3 26,-13 1,-21 119,-96 c 4,-4 13,-9 28,-17 l 24,-17 24,-6 c 24,-17 37,-25 40,-25 6,0 15,3 27,9 l 13,-35 38,8 2,-18 c 21,-6 34,-11 41,-13 22,-9 44,-14 67,-16 l 27,-9 c 22,-4 34,-7 36,-8 6,-2 13,-8 23,-17 8,1 15,1 22,1 7,0 22,-4 46,-12 9,-3 19,-5 30,-5 9,0 19,1 27,4 7,1 11,2 13,1 l 123,-4 c 23,1 45,12 65,34 14,15 22,22 25,22 11,0 21,-13 31,-39 20,13 37,19 50,19 5,0 9,0 13,-1 17,-4 25,-5 25,-5 l 30,9 c 81,21 134,36 157,47 l 1,28 -1,0 c -10,9 -16,16 -19,19 -23,24 -38,36 -45,36 -6,0 -16,-4 -31,-11 -35,-14 -75,-30 -121,-46 l -12,-30 c -12,2 -20,4 -24,5 -10,3 -16,5 -18,5 -2,0 -22,-7 -60,-19 -11,-4 -18,-9 -21,-13 -3,-4 -6,-9 -9,-13 -20,8 -33,12 -38,12 l -53,0 -74,1 -23,-3 c -28,5 -49,10 -64,16 l -56,7 c -24,5 -43,9 -57,11 -7,2 -19,7 -36,16 l -46,22 -33,23 c -67,28 -112,58 -135,90 -16,4 -34,13 -55,26 0,7 -1,14 -4,21 -12,6 -28,20 -48,40 l -22,21 c -19,25 -31,39 -36,42 -6,4 -11,6 -16,6 -2,0 -6,0 -11,-1 4,7 6,11 6,13 0,2 -15,27 -45,77 -24,25 -37,40 -41,45 -2,4 -9,20 -21,49 l -19,47 -8,27 c -17,30 -28,52 -32,67 -3,10 -7,29 -12,56 -9,36 -14,56 -15,60 -2,9 -12,15 -31,19 2,16 9,29 22,39 -6,17 -10,27 -10,32 1,14 3,30 8,51 1,2 1,3 1,4 0,5 -3,9 -8,12 l -73,28 c -6,1 -8,5 -8,10 0,2 1,6 4,10 10,14 16,25 18,31 5,13 8,20 9,21 14,11 28,22 42,33 l 16,43 c 5,9 7,21 9,33 l -6,0 6,32 13,3 c 7,12 10,22 10,29 l 3,0 c 2,12 3,20 4,24 3,19 6,31 8,35 l 17,33 c 18,45 26,72 26,80 0,6 -6,9 -18,9 l 9,23 c 13,-1 22,0 29,3 6,2 12,5 18,9 12,14 24,28 35,43 l 28,25 21,27 c 25,13 42,23 51,31 1,15 6,26 15,32 12,9 27,16 45,22 l 41,25 32,15 29,14 31,12 21,16 c 6,3 12,8 18,15 9,-8 17,-13 25,-13 1,0 37,10 107,28 77,1 117,1 121,1 4,0 9,2 15,5 10,6 19,9 26,10 9,-5 14,-9 16,-12 5,-4 9,-6 11,-6 l 11,0 7,1 75,-10 c 11,-1 39,-7 83,-19 23,7 36,10 41,10 9,0 24,-7 46,-22 l 43,-10 c 27,-9 44,-16 53,-21 l 21,5 c 8,1 34,-6 78,-21 51,-17 78,-27 81,-28 2,-1 7,-7 15,-18 l 34,-18 c 20,-11 37,-16 54,-16 4,0 11,1 22,5 1,-16 4,-26 9,-30 3,-3 13,-8 31,-15 20,-12 31,-18 33,-18 5,0 11,3 19,8 -2,33 -8,58 -18,76 -6,9 -10,21 -13,36 -2,6 -6,10 -11,14 -5,3 -31,9 -78,17 -22,9 -36,15 -43,16 -5,1 -21,5 -50,12 l -41,9 -43,12 -39,6 c -38,12 -60,18 -67,18 -6,0 -16,-1 -28,-1 -9,0 -21,0 -38,-1 l 0,6 c 0,12 -7,17 -22,17 -3,0 -5,0 -7,0 -12,-1 -18,-2 -19,-2 -1,0 -4,1 -10,2 l -114,26 c -24,5 -52,8 -83,10 l -70,4 c 0,0 -2,0 -4,0 -5,9 -13,13 -23,14 -28,1 -53,2 -73,2 -13,0 -34,-5 -62,-16 -6,-3 -14,-4 -23,-4 -8,0 -17,6 -25,17 l -46,-2 c -11,-17 -21,-25 -31,-25 l -3,0 c -13,0 -24,0 -34,1 -10,1 -15,2 -17,2 -23,0 -52,-10 -88,-28 -26,-15 -56,-29 -89,-43 -51,-32 -85,-51 -102,-59 l -6,-17 20,0 c 0,-5 0,-9 0,-13 0,-20 -8,-31 -23,-33 -10,11 -17,16 -23,16 -3,0 -14,-8 -33,-23 l -63,-43 -20,-27 -9,-10 -33,-48 c -48,-65 -80,-138 -97,-220 l 19,-11 0,-17 -21,-14 c 0,-14 -3,-28 -8,-40 l -6,-19 c -7,-11 -10,-18 -11,-20 -1,-3 -1,-15 -1,-36 l -4,-41 5,-18 c -6,-18 -9,-29 -9,-35 0,-14 4,-28 13,-41 2,-1 4,-12 8,-34 z m 1883,-76 c 8,4 15,7 22,6 6,0 9,-4 9,-14 0,-9 -8,-21 -26,-35 1,-15 3,-23 4,-26 l 17,-45 c 20,-69 46,-129 80,-182 23,-47 38,-75 45,-85 28,-41 50,-71 66,-90 l 9,4 14,-15 c 0,-4 0,-7 0,-10 0,-11 6,-24 20,-39 10,-11 31,-30 63,-54 9,-16 14,-25 16,-27 3,-2 5,-2 9,-3 l 0,0 23,9 16,-27 -4,-10 c 19,-13 37,-21 55,-23 3,-18 7,-30 13,-35 5,-5 24,-15 59,-29 18,-8 29,-15 35,-21 10,-10 19,-14 29,-14 9,-11 15,-18 18,-19 l 46,-21 36,-18 27,-9 c 24,-13 47,-23 70,-29 21,-4 52,-7 93,-9 l 45,-5 38,-5 c 20,-4 31,-6 33,-6 8,0 18,1 31,2 6,1 12,1 18,1 35,1 57,3 64,5 31,8 47,12 48,12 l 85,-8 c 0,0 2,2 6,6 10,12 18,20 23,23 3,3 19,5 46,7 9,0 24,6 45,16 l 22,4 18,6 14,5 c 6,1 11,11 16,27 7,-3 12,-7 17,-11 22,7 38,12 46,17 7,5 14,18 21,38 10,-8 17,-12 24,-12 4,0 31,19 81,56 18,13 29,22 32,28 4,4 7,10 10,15 4,5 9,12 16,22 l -17,28 7,0 0,29 c 10,-8 17,-12 21,-12 9,0 20,8 33,23 l 17,0 c 8,16 13,25 16,30 11,16 18,30 21,43 16,20 25,34 28,43 -10,11 -15,20 -15,29 0,2 0,4 0,7 23,19 38,35 46,49 2,8 4,33 4,74 l 15,51 1,30 c 4,27 6,43 7,49 0,6 -2,11 -4,14 -1,1 -8,7 -21,20 -2,3 -4,15 -4,36 0,12 3,21 9,29 1,1 8,6 20,16 0,0 3,6 8,17 5,8 7,14 7,15 0,2 -1,9 -5,19 -1,6 -2,12 -2,20 0,4 0,8 0,12 1,29 2,49 2,59 0,8 -6,31 -17,70 l -5,16 -10,27 c -6,31 -11,49 -14,56 -4,6 -11,14 -20,22 l 6,19 c -12,7 -19,13 -19,18 l 0,11 c 0,7 -9,24 -28,51 -38,53 -73,95 -106,128 -29,38 -46,60 -50,65 -3,2 -15,12 -37,27 -4,2 -17,15 -39,39 -13,12 -24,21 -34,26 l -147,94 -27,11 -238,112 -30,7 -189,50 -7,2 -151,18 -43,-12 -31,-5 -30,-8 c -19,0 -30,-1 -34,-3 -4,-2 -7,-6 -10,-14 l 3,-3 -13,-17 c -12,1 -24,3 -39,7 -1,1 -2,1 -2,1 -8,0 -14,-6 -18,-19 -1,-1 -6,-23 -16,-64 0,-1 -3,-8 -7,-21 -2,-4 -3,-6 -3,-6 -5,0 -10,31 -17,92 -15,-11 -40,-26 -75,-46 -35,-20 -60,-35 -75,-43 -1,-10 -2,-16 -4,-20 -2,-4 -8,-8 -18,-12 -1,-12 -4,-21 -7,-28 -4,-8 -9,-18 -14,-29 -11,0 -23,-4 -35,-11 -10,3 -16,5 -17,5 -6,0 -16,-10 -30,-29 -16,-19 -26,-32 -32,-38 -1,-19 -2,-30 -5,-35 -1,-2 -7,-7 -19,-16 -1,-3 -3,-5 -6,-9 -2,-2 -8,-14 -18,-34 l -42,-67 c -13,-32 -19,-50 -19,-55 0,-5 4,-12 12,-22 l 14,0 -2,-26 c -5,-5 -13,-9 -23,-12 -14,-5 -22,-21 -23,-49 -1,-23 -3,-42 -8,-57 -7,-20 -11,-63 -12,-127 l 0,-2 c 0,-2 1,-13 3,-32 1,-2 1,-21 2,-57 1,-20 7,-36 18,-49 z m 179,414 10,14 -7,2 24,6 c 8,22 18,39 29,49 6,6 10,14 11,24 8,11 13,19 18,23 -11,14 -17,24 -17,30 0,6 4,12 12,17 6,6 12,9 18,9 4,0 15,-4 33,-10 5,12 9,19 13,20 l 22,18 c 18,17 38,32 60,46 -3,12 -4,23 -4,32 0,8 3,14 9,19 9,8 20,12 33,12 3,0 7,-1 12,-4 11,11 25,21 41,32 1,13 4,20 7,21 1,1 6,3 13,7 9,2 22,8 37,17 18,10 29,16 33,16 12,5 25,13 39,23 12,1 36,5 70,14 34,6 53,10 60,12 17,6 26,9 30,9 0,0 5,-1 15,-2 4,-1 9,-1 15,-1 6,0 13,0 19,0 6,1 10,1 13,1 5,0 12,-2 22,-6 10,12 19,19 28,19 5,0 23,-6 53,-17 l 31,-4 c 28,-12 45,-18 50,-20 3,-1 24,-1 62,-2 l 28,-17 c 40,-19 66,-32 78,-41 12,9 21,12 27,12 8,0 17,-6 25,-20 -7,-9 -11,-16 -11,-22 0,-6 10,-12 31,-20 4,-2 16,-9 34,-22 7,-6 25,-16 53,-29 l 20,15 c 10,-18 22,-31 36,-38 l 3,-21 c 14,-8 43,-30 87,-67 l 30,-24 32,-44 30,-33 24,-45 25,-39 c 14,-35 25,-59 33,-72 -1,-8 -1,-14 -1,-21 0,-13 4,-20 14,-20 3,0 7,3 13,10 6,8 11,13 13,15 l 18,-22 c 3,0 5,0 7,0 12,0 18,-3 18,-10 0,-7 -3,-16 -8,-26 -15,8 -27,13 -37,15 -6,-9 -9,-17 -9,-24 0,-2 2,-18 7,-49 l 0,-36 78,-18 -88,-33 43,-5 c 28,-54 42,-81 42,-81 0,-1 -1,-2 -2,-4 -12,-11 -27,-16 -46,-16 -12,0 -25,1 -40,2 22,-4 33,-14 33,-28 0,-16 -13,-30 -38,-42 2,-13 3,-22 3,-29 0,-6 -3,-26 -9,-60 -4,-22 -6,-40 -7,-55 -10,-11 -16,-18 -16,-20 l -17,-94 -15,-25 -15,-31 -20,-28 c -16,-42 -35,-71 -56,-89 0,-16 1,-26 1,-31 0,-8 -3,-17 -8,-27 l -34,10 c -9,-13 -24,-30 -44,-49 -18,-17 -28,-26 -31,-28 -3,-2 -27,-15 -69,-38 -18,-11 -33,-25 -44,-42 -7,4 -13,7 -16,7 -5,0 -13,-5 -23,-14 -7,0 -12,0 -17,0 -14,0 -38,-9 -70,-27 2,-11 4,-21 3,-29 0,-10 -10,-19 -32,-26 -6,5 -12,12 -17,20 -3,6 -8,11 -13,16 -14,-5 -32,-8 -53,-11 -34,-11 -52,-17 -56,-17 -1,0 -13,2 -35,6 l -10,-43 -2,44 c -16,-6 -24,-9 -26,-9 -3,0 -22,4 -57,11 -6,1 -13,2 -22,2 -8,0 -19,-1 -31,-3 -16,-2 -28,-2 -37,-2 -3,0 -15,2 -38,6 l -47,9 -54,25 -44,8 c -4,1 -11,9 -20,22 l -18,-3 -5,20 c -22,8 -39,18 -52,27 l 1,16 c -29,9 -56,27 -84,51 -36,34 -66,55 -87,65 -7,14 -13,25 -17,30 -3,4 -24,27 -63,68 -4,13 -11,25 -18,34 -8,9 -26,38 -54,87 -6,11 -18,43 -37,97 l -18,22 -9,46 -10,17 c 0,21 -1,33 -2,37 -1,2 -7,16 -19,41 0,2 -1,4 -1,6 l 2,7 0,35 1,141 0,6 0,6 c 0,5 1,11 4,19 2,8 3,12 3,12 l -3,46 c 0,4 4,10 11,20 11,14 18,29 21,46 l 7,32 -1,26 c 0,3 10,19 31,48 1,2 2,5 2,9 0,6 -1,14 -3,21 z m -27,8 6,0 14,4 5,0 0,-1 -1,-1 -13,-4 -11,0 0,2 z"
           class="fil0" /><path
           style="fill:#8e5835;fill-rule:nonzero"
           id="path25"
           d="m 9547,11936 c 4,-8 7,-12 8,-14 l 27,-16 c 6,-5 19,-20 37,-45 1,-2 8,-8 21,-18 6,-5 12,-12 17,-21 0,-5 -1,-11 -1,-15 0,-13 8,-27 25,-41 23,-23 37,-38 42,-45 l 51,-93 c 0,-1 6,-2 17,-6 l 4,-3 c -1,-7 -1,-13 -1,-18 0,-7 0,-12 2,-14 l 22,-30 91,-143 2,-9 c -5,-4 -8,-6 -11,-6 -1,0 -5,1 -10,2 -3,1 -6,1 -10,1 -4,0 -10,0 -17,-1 -4,-12 -6,-20 -6,-26 0,-3 4,-10 12,-21 5,-16 10,-29 16,-37 9,-13 16,-24 22,-32 12,0 21,1 26,3 27,9 40,14 40,14 0,0 1,-1 3,-2 2,-7 3,-12 3,-15 0,-5 -2,-12 -5,-21 11,-8 17,-13 19,-16 l 18,-35 c 4,-9 16,-22 36,-40 2,-15 4,-24 6,-27 2,-3 14,-14 35,-34 2,-2 9,-19 21,-50 4,-8 20,-34 51,-80 l 60,-118 25,-27 c 1,-11 2,-18 3,-19 2,-2 10,-15 26,-39 1,-1 2,-4 2,-6 0,-4 -1,-9 -2,-15 6,-5 11,-14 17,-26 6,-12 12,-22 18,-32 l 18,27 c 4,-7 5,-12 5,-16 0,-4 -2,-12 -8,-22 7,-15 11,-24 14,-28 12,-17 18,-27 18,-30 0,-1 1,-7 1,-20 0,-2 3,-9 10,-21 2,-3 8,-19 18,-45 1,-4 4,-12 10,-25 l 40,-4 -4,-12 -24,-11 0,-15 c 9,-7 16,-16 20,-25 l -10,-9 0,-4 c 9,-8 18,-20 26,-36 8,-15 15,-27 22,-37 -6,-9 -8,-16 -8,-21 l 0,-7 0,-9 0,-20 75,-52 17,13 c 6,-12 10,-19 11,-23 4,-11 9,-16 13,-16 4,0 9,1 15,4 3,-13 9,-23 18,-29 12,-9 23,-14 33,-14 19,0 29,22 31,67 7,30 11,50 11,61 3,20 11,41 25,65 8,32 12,53 12,63 0,7 0,14 0,22 l -37,20 c 6,12 11,20 16,22 3,2 17,6 42,13 12,4 24,22 37,55 9,23 14,37 14,41 0,4 -3,12 -11,23 10,10 17,16 20,19 15,13 24,22 25,25 l 11,28 19,46 c 2,4 3,14 5,31 19,20 30,40 32,61 2,16 3,25 3,26 l 21,31 c 2,5 15,31 39,77 l -21,14 c 4,11 9,20 15,25 l 14,3 -3,20 c 63,60 96,118 98,175 3,13 16,42 40,86 34,62 52,99 56,109 5,14 12,27 21,40 l 58,127 -2,26 c 37,20 56,39 56,56 0,9 -9,18 -27,26 5,11 10,17 15,20 1,1 7,4 18,7 9,3 19,14 28,34 6,9 14,31 25,67 26,40 43,66 50,79 -12,9 -17,19 -17,29 0,4 0,9 1,14 -21,10 -36,15 -45,17 -3,2 -13,3 -32,3 -9,1 -30,8 -65,23 -16,-37 -26,-62 -28,-78 -3,-13 -9,-27 -18,-41 -17,-46 -26,-71 -26,-77 0,-4 1,-9 1,-15 -11,-10 -18,-19 -20,-27 0,-2 -1,-12 -2,-29 -1,-7 -1,-12 -1,-14 0,-7 3,-17 9,-30 l -28,-25 c 7,-10 12,-16 16,-19 6,-5 9,-9 9,-13 0,-4 -1,-8 -2,-13 l -44,4 c -15,-20 -26,-35 -31,-47 -4,-7 -8,-27 -15,-58 l -15,-32 c -7,-40 -13,-63 -17,-70 -10,-23 -28,-34 -52,-34 -21,0 -33,24 -35,70 -5,2 -8,3 -9,3 -7,0 -16,-4 -26,-13 -18,-12 -37,-20 -56,-24 -9,-1 -22,-6 -39,-14 -22,-10 -40,-15 -54,-15 -5,0 -22,3 -50,10 l -27,-5 -30,3 -25,0 -25,4 -43,1 c -19,1 -31,1 -37,1 -9,1 -14,1 -14,1 l -58,-12 -27,5 c -20,-5 -31,-8 -33,-8 -3,0 -18,4 -44,10 -19,5 -36,8 -51,9 l -26,-29 c -19,3 -39,11 -59,21 -2,1 -15,4 -40,8 -10,1 -15,2 -15,2 -8,0 -17,-1 -28,-3 -16,-3 -29,-4 -41,-4 -8,0 -24,3 -46,8 -13,4 -26,7 -41,8 -6,11 -11,18 -12,22 -10,19 -22,38 -36,56 -11,17 -25,41 -43,73 l -17,-3 c -5,4 -7,9 -7,13 0,4 1,11 2,20 1,4 2,9 2,16 -11,13 -18,21 -19,25 l -44,89 c -8,13 -16,28 -25,43 l -9,13 -50,33 c -3,2 -4,5 -4,10 0,7 7,16 21,28 l -13,43 c -15,6 -25,11 -31,15 -8,6 -17,20 -26,41 -18,7 -30,13 -35,17 -8,6 -15,9 -19,9 -2,0 -8,-3 -18,-9 -3,-2 -7,-3 -12,-3 -4,0 -8,1 -13,1 -12,-11 -25,-20 -39,-24 z m 507,-642 c 13,-8 22,-12 25,-12 4,0 11,5 19,12 l 29,-3 11,19 c 13,-5 30,-7 53,-7 l 82,0 c 15,0 36,5 62,14 27,1 47,3 60,6 13,19 28,28 46,28 l 58,-29 0,0 31,6 53,0 20,5 27,-3 25,2 25,-2 23,7 55,-10 42,-3 83,-9 68,6 c 10,0 15,-4 15,-12 0,-3 -3,-13 -9,-31 -1,-5 -2,-12 -2,-22 -12,-8 -21,-17 -26,-28 -22,-44 -35,-65 -38,-65 -6,-9 -11,-19 -14,-31 -2,-10 -7,-21 -15,-33 3,-16 4,-30 4,-41 0,-6 -2,-16 -7,-30 l -32,5 c -7,-14 -11,-24 -13,-28 l -6,-23 -21,-29 -23,-40 -10,-18 c -5,-25 -13,-48 -25,-68 -8,-15 -12,-29 -12,-41 l 19,-8 c -6,-10 -14,-15 -24,-15 -3,0 -7,0 -12,1 -7,-13 -11,-21 -14,-25 -14,-21 -21,-32 -22,-34 l -6,-36 -14,-24 -14,-32 -31,-38 -16,-53 -16,-28 c -8,-17 -17,-32 -27,-46 -16,9 -26,19 -32,30 -10,20 -15,38 -14,55 l -6,0 c -10,18 -23,39 -40,62 l -53,103 c -10,17 -16,31 -19,44 -11,7 -18,15 -22,26 -11,26 -28,43 -49,51 l 5,26 -14,6 -1,0 c -12,-1 -22,-2 -31,-2 l -7,12 24,14 c -7,25 -18,49 -32,74 -29,55 -56,91 -82,107 -6,4 -10,14 -11,30 0,12 -3,23 -8,34 0,0 -8,15 -24,46 l -22,23 -11,26 c -14,23 -22,38 -25,46 -4,11 -8,22 -12,33 z"
           class="fil0" /></g><g
         id="g27"><path
           style="fill:#8e5835;fill-rule:nonzero"
           id="path29"
           d="m 14030,11882 c 4,-8 6,-12 7,-13 l 26,-16 c 7,-5 19,-19 36,-43 1,-2 8,-8 20,-17 6,-5 12,-12 17,-21 -1,-5 -1,-10 -1,-14 0,-12 8,-26 24,-40 22,-22 35,-36 40,-43 l 49,-89 c 0,-1 6,-2 16,-5 l 4,-4 c -1,-7 -1,-12 -1,-17 0,-7 0,-11 2,-13 l 22,-30 87,-137 2,-9 c -5,-3 -9,-5 -11,-5 -1,0 -5,1 -10,2 -2,0 -5,1 -9,1 -4,0 -10,0 -16,-1 -4,-11 -6,-19 -6,-25 0,-3 4,-10 11,-20 5,-16 10,-28 15,-36 9,-12 16,-23 21,-30 12,0 21,1 25,2 26,9 39,14 39,14 0,0 1,-1 3,-2 2,-7 3,-12 3,-15 0,-4 -2,-11 -5,-20 11,-7 17,-12 18,-15 l 17,-34 c 5,-8 16,-21 35,-38 2,-15 4,-23 6,-26 2,-3 13,-14 34,-32 1,-3 8,-19 20,-48 3,-8 19,-34 48,-77 l 58,-114 24,-26 c 1,-11 2,-17 4,-18 1,-2 9,-14 24,-37 1,-2 2,-4 2,-6 0,-5 -1,-9 -2,-15 6,-4 11,-13 17,-24 5,-12 11,-22 17,-31 l 18,26 c 3,-7 4,-12 4,-15 0,-5 -2,-12 -7,-22 6,-14 10,-23 13,-26 11,-17 17,-27 17,-30 0,0 1,-7 0,-19 0,-2 4,-8 10,-20 2,-3 8,-18 18,-43 1,-4 4,-12 9,-24 l 38,-4 -3,-12 -23,-10 0,-15 c 8,-7 15,-15 19,-24 l -10,-8 0,-4 c 9,-8 18,-20 26,-35 8,-14 14,-26 20,-35 -5,-9 -7,-15 -7,-21 l 0,-6 0,-9 0,-18 72,-51 16,13 c 6,-11 10,-19 11,-22 4,-11 8,-16 12,-16 4,0 9,2 14,4 3,-12 9,-22 18,-28 12,-9 22,-13 32,-13 18,0 28,21 30,65 6,28 10,47 11,58 2,18 10,39 23,62 8,31 12,51 12,60 0,7 0,14 0,22 l -36,18 c 6,12 11,20 16,23 3,1 16,5 40,12 11,3 23,21 36,52 8,22 13,35 13,40 0,4 -4,11 -10,22 9,10 15,16 18,18 15,13 23,21 24,24 l 11,27 18,44 c 2,4 4,14 5,30 18,19 29,38 31,58 2,16 3,25 3,25 l 20,30 c 2,5 14,30 37,75 l -20,12 c 4,11 8,20 14,25 l 14,3 -3,19 c 61,57 92,113 94,168 3,13 16,40 39,82 32,60 50,95 54,105 4,13 11,26 19,38 l 56,122 -2,26 c 36,18 54,37 54,54 0,8 -9,16 -26,25 5,10 10,16 15,18 1,1 7,4 17,7 9,3 18,14 27,33 5,9 13,30 24,64 25,39 41,64 48,76 -11,9 -17,18 -17,28 0,4 1,9 1,14 -20,9 -34,14 -42,16 -3,1 -14,2 -31,3 -9,0 -29,8 -63,21 -15,-34 -24,-59 -27,-74 -3,-12 -9,-26 -17,-40 -17,-44 -25,-68 -25,-74 0,-4 1,-8 1,-14 -11,-10 -17,-19 -19,-26 0,-2 -1,-11 -2,-28 -1,-6 -1,-11 -1,-13 0,-7 2,-17 8,-29 l -27,-24 c 7,-9 13,-15 16,-18 5,-5 8,-9 8,-13 0,-3 0,-7 -2,-12 l -42,4 c -14,-19 -24,-34 -30,-46 -3,-7 -7,-25 -14,-55 l -14,-31 c -7,-38 -12,-61 -16,-68 -10,-21 -27,-32 -50,-32 -21,1 -32,23 -34,67 -5,2 -8,3 -9,3 -7,0 -15,-4 -25,-12 -17,-12 -35,-20 -53,-23 -9,-1 -22,-6 -38,-13 -21,-10 -38,-15 -51,-15 -6,0 -22,3 -49,9 l -26,-4 -28,2 -24,1 -24,3 -42,1 c -18,1 -30,2 -36,2 -8,0 -13,1 -13,1 l -55,-13 -27,6 c -19,-5 -29,-8 -31,-8 -3,0 -18,3 -43,10 -18,4 -34,7 -48,8 l -25,-28 c -19,3 -38,10 -57,21 -2,1 -15,3 -39,7 -9,1 -14,2 -14,2 -7,0 -16,-1 -27,-3 -15,-3 -28,-4 -39,-4 -8,0 -23,3 -44,8 -13,4 -26,6 -39,8 -7,10 -11,17 -13,21 -9,18 -20,36 -34,53 -10,17 -24,40 -41,71 l -16,-4 c -5,5 -7,10 -7,14 0,3 1,9 2,18 1,4 1,9 2,15 -11,13 -17,21 -18,24 l -43,87 c -7,12 -16,26 -24,41 l -8,12 -49,31 c -2,2 -3,6 -3,10 0,7 6,16 20,27 l -13,42 c -14,5 -24,10 -29,14 -9,6 -17,19 -26,39 -17,7 -28,13 -33,17 -8,5 -14,8 -18,8 -2,0 -8,-3 -18,-8 -2,-2 -6,-3 -12,-3 -3,0 -7,0 -12,1 -11,-11 -24,-19 -37,-23 z m 487,-617 c 13,-7 21,-11 24,-11 4,0 10,4 18,12 l 28,-4 11,18 c 12,-4 29,-6 50,-6 l 79,0 c 15,0 35,4 60,13 26,1 45,3 58,6 12,18 27,27 43,27 l 56,-28 0,0 30,6 51,0 19,5 26,-4 24,3 24,-2 23,6 52,-9 41,-3 79,-8 65,5 c 10,0 15,-4 15,-11 0,-3 -3,-13 -9,-30 -1,-5 -2,-12 -2,-21 -11,-8 -20,-17 -25,-27 -21,-42 -33,-63 -36,-63 -6,-8 -11,-18 -13,-29 -3,-10 -8,-21 -15,-32 3,-15 4,-28 4,-39 0,-6 -2,-16 -7,-29 l -31,4 c -7,-13 -11,-22 -12,-26 l -6,-22 -20,-28 -22,-39 -10,-17 c -4,-24 -12,-46 -23,-65 -9,-15 -13,-28 -12,-39 l 17,-9 c -5,-9 -13,-14 -22,-14 -3,0 -7,1 -12,1 -6,-12 -10,-20 -13,-24 -13,-20 -20,-30 -21,-32 l -6,-35 -13,-23 -14,-31 -29,-36 -16,-52 -16,-26 c -7,-16 -16,-31 -26,-45 -14,10 -24,19 -30,29 -10,20 -14,37 -14,53 l -5,0 c -10,18 -23,38 -39,60 l -51,98 c -9,17 -15,31 -18,43 -11,7 -18,15 -21,25 -11,25 -27,42 -47,49 l 5,25 -14,6 -1,0 c -11,-1 -21,-2 -29,-2 l -7,11 23,14 c -7,23 -17,47 -31,70 -27,54 -53,89 -78,104 -6,4 -10,13 -11,28 0,12 -3,22 -8,33 0,0 -7,14 -23,44 l -21,22 -10,25 c -14,22 -22,37 -25,45 -3,10 -7,21 -11,31 z m 1430,650 4,-8 c 18,-37 28,-58 29,-61 1,-4 2,-18 3,-44 11,-60 17,-103 19,-129 l -13,-7 -3,-6 c 41,-20 66,-32 73,-37 8,-5 11,-11 11,-18 0,-16 -26,-38 -77,-66 l 20,-7 c 0,-16 1,-27 2,-32 0,-1 0,-2 0,-2 0,-2 -2,-9 -7,-19 -5,-12 -7,-27 -7,-43 l 13,-116 -1,-123 c 0,-6 4,-14 11,-24 8,-7 13,-17 17,-29 l -29,-14 c -5,-27 -7,-49 -7,-63 0,-6 0,-12 1,-18 3,-39 4,-60 4,-64 0,-1 0,-2 0,-4 -7,-53 -10,-80 -10,-80 0,-1 3,-4 9,-9 4,-3 10,-8 18,-16 l 0,-12 -24,-18 c 1,-12 2,-23 2,-32 -1,-19 -2,-40 -4,-66 l 17,-21 c -8,-12 -13,-20 -13,-26 0,-6 1,-12 3,-18 l -16,-2 c -1,-2 -2,-4 -2,-4 l 47,-78 4,-73 23,-28 -77,-74 1,-60 c 0,-15 -6,-23 -19,-23 -5,0 -12,1 -20,5 -6,-5 -9,-10 -9,-15 0,-10 4,-19 12,-26 4,-3 10,-5 16,-5 6,0 12,1 21,2 12,-10 26,-19 39,-26 28,-13 44,-20 48,-20 5,0 13,7 21,20 4,-1 8,-1 10,-1 6,0 15,2 27,7 l 19,-17 c 24,2 39,3 47,5 16,1 27,2 34,2 1,0 31,-3 89,-10 l 1,0 c 2,0 7,1 17,2 23,4 79,7 170,9 l 22,3 42,2 c 7,1 11,1 13,1 6,0 15,-4 26,-13 15,3 36,6 63,8 l 46,6 32,4 22,6 33,0 29,4 c 23,3 48,9 74,20 14,5 22,14 24,26 l -3,5 -13,0 0,23 c 5,5 11,8 18,8 l 4,-3 c -1,-5 -1,-8 -1,-11 0,-5 4,-12 11,-19 4,1 9,4 14,9 3,2 6,4 9,6 18,12 27,22 27,31 0,18 -3,41 -8,68 12,0 18,4 18,12 0,4 -5,15 -17,33 -10,16 -22,28 -35,36 -1,0 -4,5 -10,12 -5,6 -27,26 -65,63 -26,18 -40,28 -42,30 -4,4 -8,12 -13,24 l -29,20 -17,-3 c -7,6 -15,11 -22,15 -13,4 -24,14 -35,27 -14,16 -23,25 -28,28 -4,2 -13,5 -27,7 l -15,13 -24,-7 c -3,11 -7,20 -11,27 -22,4 -38,11 -51,20 l 4,4 c -13,16 -25,27 -36,34 -7,4 -20,7 -38,11 -5,1 -11,6 -14,16 -21,13 -36,23 -47,31 13,2 20,4 21,6 l 34,68 32,33 c 3,3 7,10 13,21 l -15,8 12,12 c 4,0 7,0 10,0 11,0 23,6 36,19 4,3 10,11 18,23 7,8 14,17 21,27 -11,9 -17,18 -19,26 l 10,9 36,3 c 5,5 9,12 14,21 0,1 7,9 21,23 3,3 13,22 32,58 8,15 34,48 76,97 l 29,40 c 20,24 32,38 34,44 8,17 11,28 11,34 l 0,12 0,2 c 0,6 1,10 3,14 2,4 18,14 47,30 13,8 27,21 42,39 43,54 66,84 68,90 5,10 8,23 8,39 9,9 23,17 42,26 l 12,-2 1,0 c 4,0 7,0 9,2 1,1 6,10 14,27 3,3 14,10 33,21 9,11 15,16 19,16 3,0 14,-4 32,-13 l 29,3 c 3,0 7,-2 14,-5 5,5 7,10 7,14 1,5 -1,10 -5,14 -1,1 -14,7 -38,19 l -30,17 c -4,2 -13,4 -27,7 -12,2 -31,8 -56,17 l -26,10 c -15,10 -23,15 -23,15 -2,0 -10,-6 -21,-17 -6,-4 -14,-9 -25,-14 -7,-14 -21,-37 -43,-71 -4,-5 -6,-16 -7,-34 l -54,-33 15,-33 c -13,-14 -26,-26 -39,-34 -11,-12 -29,-36 -53,-73 l 3,-23 c -18,-7 -32,-17 -44,-30 -31,-29 -49,-62 -53,-99 -7,-13 -21,-25 -42,-34 -12,-8 -30,-31 -54,-69 -12,-4 -21,-10 -28,-18 -10,-12 -21,-25 -33,-37 0,-17 -2,-29 -8,-37 -13,-18 -23,-27 -30,-27 -6,0 -12,1 -18,2 -6,-6 -15,-22 -29,-45 l -63,-82 c -19,-25 -36,-46 -54,-62 -38,-34 -63,-52 -75,-52 -1,0 -39,15 -114,44 0,0 -1,0 -3,0 -7,0 -15,-1 -24,-2 -2,9 -6,21 -11,34 -2,5 -2,8 -2,10 l 1,22 1,24 c 3,27 5,40 5,40 0,3 -1,13 -4,27 -1,6 -2,14 -2,22 0,12 1,24 2,37 1,10 2,35 2,76 l 7,25 0,72 c 2,25 4,38 4,40 0,6 -2,12 -7,19 -4,7 -7,16 -7,26 l -24,9 7,43 c 9,0 16,3 22,7 -3,10 -5,18 -5,25 0,2 3,11 7,28 1,1 1,4 1,7 0,4 0,11 -1,21 0,4 0,9 1,14 0,11 0,23 1,36 -15,7 -22,18 -21,31 0,12 8,19 24,20 -3,8 -4,12 -4,14 l 2,54 c 0,9 -4,21 -12,35 -4,8 -12,15 -25,22 -13,7 -21,12 -22,14 -4,4 -9,10 -13,18 l -32,-5 c -18,27 -41,40 -69,40 -5,0 -14,-2 -25,-8 z m 144,-1228 17,-9 21,20 c 0,24 1,51 3,80 l 0,35 3,45 c -4,18 -5,41 -5,69 l -15,6 0,15 c 2,0 3,0 3,0 6,1 14,2 23,5 9,-8 17,-12 25,-14 4,-2 14,-4 30,-7 7,4 13,6 17,6 3,-1 9,-2 16,-6 l 5,-8 c 13,-1 35,-7 65,-19 l 24,-4 50,-32 c 17,-8 36,-19 56,-32 l 175,-96 c 35,-15 59,-27 72,-36 8,-6 21,-19 38,-37 l 35,-27 c 16,-16 27,-26 32,-30 3,-2 12,-6 25,-11 4,-3 14,-15 28,-37 13,-9 20,-15 23,-20 5,-10 7,-21 7,-31 0,-4 0,-8 -2,-13 -3,-9 -4,-15 -4,-18 0,-1 0,-4 2,-9 l 17,-11 0,-5 -31,-11 c -8,-12 -13,-21 -16,-26 l 0,-11 c 0,-1 -1,-2 -3,-5 -3,-4 -5,-9 -5,-14 0,-3 0,-6 1,-11 l -28,-7 -1,13 c -15,-4 -24,-7 -28,-9 -15,-6 -30,-10 -45,-14 -11,-2 -21,-7 -30,-15 -10,3 -16,5 -18,5 l -50,-16 -68,0 c -7,0 -15,-4 -26,-12 -10,3 -29,5 -57,6 -18,5 -28,8 -30,8 -3,0 -16,-5 -40,-14 -1,-1 -13,-3 -35,-7 -16,0 -41,9 -75,28 -11,6 -21,9 -30,9 -4,0 -7,-1 -8,-3 l -30,-43 -32,12 c -27,2 -43,5 -47,7 -10,6 -17,15 -19,24 0,2 -1,25 -2,68 0,6 -4,19 -12,39 l -13,-5 -4,15 0,1 c -1,5 2,12 8,19 15,16 24,26 26,31 1,28 1,45 1,51 0,6 1,11 1,15 0,4 -2,10 -5,17 -5,7 -7,17 -7,29 l -17,17 c 0,14 -4,26 -13,36 l 2,4 z"
           class="fil0" /><path
           style="fill:#8e5835;fill-rule:nonzero"
           id="path31"
           d="m 17275,10256 c 15,-5 45,-21 91,-48 15,-8 34,-12 57,-13 24,0 50,10 80,29 l 34,4 c 32,4 58,8 78,9 l 107,8 38,4 1,0 c 3,0 9,0 19,-1 33,-4 58,-6 73,-6 9,0 22,1 39,2 l 124,6 c 2,1 14,-2 35,-10 4,-2 8,-3 12,-3 1,0 9,2 24,7 26,1 44,4 53,7 6,1 18,5 36,12 23,-14 42,-21 56,-21 4,0 26,4 65,11 l 29,-5 c 19,4 29,6 32,6 l 25,-1 63,1 48,-3 16,0 c 21,1 31,2 33,2 l 39,12 c 0,0 2,-1 5,-2 l 11,-25 c 19,3 33,4 41,4 l 59,-11 1,0 c 2,3 9,17 20,43 l 15,-26 c 1,-2 12,-3 33,-3 1,0 17,-8 48,-24 2,-1 4,-2 6,-2 5,0 9,2 11,7 l 19,43 47,-51 19,-4 22,-9 0,0 c 10,1 17,6 22,15 l -19,17 -3,15 c -13,5 -20,10 -23,13 l -21,28 c -2,4 -10,8 -23,15 -13,7 -27,10 -41,10 -5,0 -11,-1 -18,-2 -21,-4 -33,-6 -38,-6 -5,0 -11,1 -16,1 -17,3 -26,4 -29,4 -7,0 -19,-2 -37,-6 -16,-3 -30,-5 -42,-5 -2,0 -25,3 -67,9 -11,1 -21,2 -31,2 -3,0 -35,-2 -98,-5 l -35,6 -57,-33 -26,33 -17,-6 -24,-2 -42,-3 c 0,0 -4,1 -11,3 -7,3 -15,4 -22,4 l -1,0 c -4,0 -23,-1 -58,-4 -7,-1 -14,-1 -21,-1 -9,0 -18,2 -25,7 4,4 6,7 6,8 0,4 -11,15 -32,33 -3,2 -12,17 -27,43 -3,4 -10,14 -23,31 -10,12 -15,21 -15,24 0,17 18,32 55,45 18,6 27,12 27,16 0,1 -4,7 -11,18 -3,5 -6,14 -8,25 l -15,0 2,29 21,11 c 6,11 10,19 10,25 0,6 -2,17 -4,34 -1,8 -2,17 -2,26 0,10 3,38 7,85 l 3,44 c 1,18 2,34 3,46 1,16 2,24 2,26 0,12 -4,19 -11,22 0,1 -5,2 -12,5 -5,1 -11,5 -18,10 l 0,6 -2,3 20,16 0,30 25,11 c -51,28 -77,55 -76,81 0,25 25,47 74,65 -7,8 -11,15 -11,21 0,5 1,18 4,39 0,6 1,12 1,19 0,4 -1,10 -1,18 l 9,5 c -4,25 -6,42 -6,51 l 0,1 3,35 c 2,31 3,49 3,54 1,3 4,13 9,29 -8,22 -13,36 -13,43 0,5 0,11 1,19 l -2,2 c -22,4 -32,11 -32,22 l 0,1 5,19 29,-8 c 1,12 2,20 4,24 4,11 6,17 6,19 0,0 -2,5 -4,16 -1,3 -1,7 -1,11 0,5 2,30 5,76 1,7 -2,35 -9,81 -1,10 -1,20 -1,29 0,5 4,22 12,50 -4,21 -7,34 -9,36 -3,2 -14,6 -31,11 -11,3 -19,7 -24,11 l -13,15 c -14,0 -22,0 -24,2 -34,21 -56,34 -67,39 -10,-12 -15,-21 -15,-29 0,-3 3,-13 8,-32 l -1,-26 6,-25 3,-47 3,-26 c 0,-22 1,-36 4,-41 3,-9 12,-19 26,-31 -12,-12 -18,-23 -18,-31 l 0,-1 3,-39 0,-46 c 1,-23 2,-41 2,-54 l 13,-16 c 0,-7 -1,-11 -1,-14 0,-6 1,-14 3,-25 l -14,-14 -4,0 5,-18 0,-145 c -1,-5 0,-15 3,-30 3,-16 4,-28 4,-38 0,-4 -2,-15 -6,-34 l -4,-41 c -1,-11 -2,-18 -2,-20 0,-1 4,-13 11,-35 1,-14 2,-21 3,-23 2,-5 10,-9 24,-11 l 0,-16 -29,6 c -4,-15 -6,-24 -6,-29 0,-5 2,-14 4,-27 1,-6 3,-14 5,-25 -8,-3 -15,-6 -21,-9 l 3,-21 -1,-171 c 0,-10 11,-20 33,-30 23,-11 34,-19 34,-24 0,-4 -12,-11 -35,-24 -10,-6 -22,-14 -35,-27 13,-6 20,-13 20,-19 0,0 -3,-11 -10,-32 0,-2 -1,-5 -1,-7 0,-7 1,-14 2,-23 -16,-17 -24,-39 -24,-64 0,-5 4,-15 13,-29 -5,-15 -8,-25 -10,-30 -2,-3 -2,-4 -2,-4 0,-16 27,-36 78,-60 6,-2 9,-4 9,-7 0,-1 -28,-8 -83,-20 -6,-1 -10,-5 -10,-12 0,-2 1,-6 4,-11 -19,-8 -48,-13 -87,-14 -12,1 -29,0 -52,-2 -1,0 -2,0 -3,0 -2,0 -16,2 -42,7 l -69,-6 c -2,1 -8,3 -18,7 -10,-7 -18,-11 -26,-11 l -2,0 c -13,0 -20,0 -20,0 l -47,-16 -15,7 -17,7 -30,14 c -25,-5 -39,-7 -41,-7 -6,0 -22,2 -48,5 l -42,1 -32,1 c -5,0 -21,-3 -46,-9 -2,-1 -6,-1 -11,-1 -10,0 -27,2 -52,5 -1,-1 -2,-3 -2,-5 -1,-1 -2,-2 -2,-2 0,-5 4,-11 12,-19 5,-5 10,-12 15,-21 z"
           class="fil0" /></g></g></g></svg>